<mxfile host="Electron" agent="Mozilla/5.0 (Windows NT 10.0; Win64; x64) AppleWebKit/537.36 (KHTML, like Gecko) draw.io/26.2.15 Chrome/134.0.6998.205 Electron/35.2.1 Safari/537.36" version="26.2.15">
  <diagram name="Page-1" id="gsFgIYd_ePHJ7fK2jHF5">
    <mxGraphModel dx="300" dy="327" grid="1" gridSize="10" guides="1" tooltips="1" connect="1" arrows="1" fold="1" page="1" pageScale="1" pageWidth="827" pageHeight="1169" math="0" shadow="0">
      <root>
        <mxCell id="0" />
        <mxCell id="1" parent="0" />
        <mxCell id="XA_w1-w0YbgLu9Te0FCV-1" value="Book" style="swimlane;fontStyle=1;align=center;verticalAlign=top;childLayout=stackLayout;horizontal=1;startSize=26;horizontalStack=0;resizeParent=1;resizeParentMax=0;resizeLast=0;collapsible=1;marginBottom=0;whiteSpace=wrap;html=1;" parent="1" vertex="1">
          <mxGeometry x="440" y="30" width="210" height="372" as="geometry" />
        </mxCell>
        <mxCell id="XA_w1-w0YbgLu9Te0FCV-5" value="- Title : string" style="text;strokeColor=none;fillColor=none;align=left;verticalAlign=top;spacingLeft=4;spacingRight=4;overflow=hidden;rotatable=0;points=[[0,0.5],[1,0.5]];portConstraint=eastwest;whiteSpace=wrap;html=1;" parent="XA_w1-w0YbgLu9Te0FCV-1" vertex="1">
          <mxGeometry y="26" width="210" height="24" as="geometry" />
        </mxCell>
        <mxCell id="XA_w1-w0YbgLu9Te0FCV-7" value="- Author : string" style="text;strokeColor=none;fillColor=none;align=left;verticalAlign=top;spacingLeft=4;spacingRight=4;overflow=hidden;rotatable=0;points=[[0,0.5],[1,0.5]];portConstraint=eastwest;whiteSpace=wrap;html=1;" parent="XA_w1-w0YbgLu9Te0FCV-1" vertex="1">
          <mxGeometry y="50" width="210" height="26" as="geometry" />
        </mxCell>
        <mxCell id="XA_w1-w0YbgLu9Te0FCV-6" value="- Isbn : string" style="text;strokeColor=none;fillColor=none;align=left;verticalAlign=top;spacingLeft=4;spacingRight=4;overflow=hidden;rotatable=0;points=[[0,0.5],[1,0.5]];portConstraint=eastwest;whiteSpace=wrap;html=1;" parent="XA_w1-w0YbgLu9Te0FCV-1" vertex="1">
          <mxGeometry y="76" width="210" height="26" as="geometry" />
        </mxCell>
        <mxCell id="XA_w1-w0YbgLu9Te0FCV-2" value="- isAvilable ; bool" style="text;strokeColor=none;fillColor=none;align=left;verticalAlign=top;spacingLeft=4;spacingRight=4;overflow=hidden;rotatable=0;points=[[0,0.5],[1,0.5]];portConstraint=eastwest;whiteSpace=wrap;html=1;" parent="XA_w1-w0YbgLu9Te0FCV-1" vertex="1">
          <mxGeometry y="102" width="210" height="26" as="geometry" />
        </mxCell>
        <mxCell id="XA_w1-w0YbgLu9Te0FCV-3" value="" style="line;strokeWidth=1;fillColor=none;align=left;verticalAlign=middle;spacingTop=-1;spacingLeft=3;spacingRight=3;rotatable=0;labelPosition=right;points=[];portConstraint=eastwest;strokeColor=inherit;" parent="XA_w1-w0YbgLu9Te0FCV-1" vertex="1">
          <mxGeometry y="128" width="210" height="8" as="geometry" />
        </mxCell>
        <mxCell id="XA_w1-w0YbgLu9Te0FCV-8" value="+ setTitle(string) : void" style="text;strokeColor=none;fillColor=none;align=left;verticalAlign=top;spacingLeft=4;spacingRight=4;overflow=hidden;rotatable=0;points=[[0,0.5],[1,0.5]];portConstraint=eastwest;whiteSpace=wrap;html=1;" parent="XA_w1-w0YbgLu9Te0FCV-1" vertex="1">
          <mxGeometry y="136" width="210" height="26" as="geometry" />
        </mxCell>
        <mxCell id="XA_w1-w0YbgLu9Te0FCV-10" value="+ getTitle(void) : string" style="text;strokeColor=none;fillColor=none;align=left;verticalAlign=top;spacingLeft=4;spacingRight=4;overflow=hidden;rotatable=0;points=[[0,0.5],[1,0.5]];portConstraint=eastwest;whiteSpace=wrap;html=1;" parent="XA_w1-w0YbgLu9Te0FCV-1" vertex="1">
          <mxGeometry y="162" width="210" height="26" as="geometry" />
        </mxCell>
        <mxCell id="XA_w1-w0YbgLu9Te0FCV-11" value="+ setAuthor(string) : void" style="text;strokeColor=none;fillColor=none;align=left;verticalAlign=top;spacingLeft=4;spacingRight=4;overflow=hidden;rotatable=0;points=[[0,0.5],[1,0.5]];portConstraint=eastwest;whiteSpace=wrap;html=1;" parent="XA_w1-w0YbgLu9Te0FCV-1" vertex="1">
          <mxGeometry y="188" width="210" height="26" as="geometry" />
        </mxCell>
        <mxCell id="XA_w1-w0YbgLu9Te0FCV-9" value="+ getAuthor(void) : string" style="text;strokeColor=none;fillColor=none;align=left;verticalAlign=top;spacingLeft=4;spacingRight=4;overflow=hidden;rotatable=0;points=[[0,0.5],[1,0.5]];portConstraint=eastwest;whiteSpace=wrap;html=1;" parent="XA_w1-w0YbgLu9Te0FCV-1" vertex="1">
          <mxGeometry y="214" width="210" height="26" as="geometry" />
        </mxCell>
        <mxCell id="XA_w1-w0YbgLu9Te0FCV-4" value="+ setIsbn(string) : void" style="text;strokeColor=none;fillColor=none;align=left;verticalAlign=top;spacingLeft=4;spacingRight=4;overflow=hidden;rotatable=0;points=[[0,0.5],[1,0.5]];portConstraint=eastwest;whiteSpace=wrap;html=1;" parent="XA_w1-w0YbgLu9Te0FCV-1" vertex="1">
          <mxGeometry y="240" width="210" height="28" as="geometry" />
        </mxCell>
        <mxCell id="XA_w1-w0YbgLu9Te0FCV-12" value="+ getIsbn(void) : string" style="text;strokeColor=none;fillColor=none;align=left;verticalAlign=top;spacingLeft=4;spacingRight=4;overflow=hidden;rotatable=0;points=[[0,0.5],[1,0.5]];portConstraint=eastwest;whiteSpace=wrap;html=1;" parent="XA_w1-w0YbgLu9Te0FCV-1" vertex="1">
          <mxGeometry y="268" width="210" height="26" as="geometry" />
        </mxCell>
        <mxCell id="XA_w1-w0YbgLu9Te0FCV-13" value="+ setIsAvilable(bool) : void" style="text;strokeColor=none;fillColor=none;align=left;verticalAlign=top;spacingLeft=4;spacingRight=4;overflow=hidden;rotatable=0;points=[[0,0.5],[1,0.5]];portConstraint=eastwest;whiteSpace=wrap;html=1;" parent="XA_w1-w0YbgLu9Te0FCV-1" vertex="1">
          <mxGeometry y="294" width="210" height="26" as="geometry" />
        </mxCell>
        <mxCell id="XA_w1-w0YbgLu9Te0FCV-15" value="+ getIsAvilable(void) : bool" style="text;strokeColor=none;fillColor=none;align=left;verticalAlign=top;spacingLeft=4;spacingRight=4;overflow=hidden;rotatable=0;points=[[0,0.5],[1,0.5]];portConstraint=eastwest;whiteSpace=wrap;html=1;" parent="XA_w1-w0YbgLu9Te0FCV-1" vertex="1">
          <mxGeometry y="320" width="210" height="26" as="geometry" />
        </mxCell>
        <mxCell id="XA_w1-w0YbgLu9Te0FCV-14" value="+ toString(void) : void" style="text;strokeColor=none;fillColor=none;align=left;verticalAlign=top;spacingLeft=4;spacingRight=4;overflow=hidden;rotatable=0;points=[[0,0.5],[1,0.5]];portConstraint=eastwest;whiteSpace=wrap;html=1;" parent="XA_w1-w0YbgLu9Te0FCV-1" vertex="1">
          <mxGeometry y="346" width="210" height="26" as="geometry" />
        </mxCell>
        <mxCell id="XA_w1-w0YbgLu9Te0FCV-16" value="User" style="swimlane;fontStyle=1;align=center;verticalAlign=top;childLayout=stackLayout;horizontal=1;startSize=26;horizontalStack=0;resizeParent=1;resizeParentMax=0;resizeLast=0;collapsible=1;marginBottom=0;whiteSpace=wrap;html=1;" parent="1" vertex="1">
          <mxGeometry x="80" y="30" width="260" height="342" as="geometry" />
        </mxCell>
        <mxCell id="XA_w1-w0YbgLu9Te0FCV-20" value="- userId : string" style="text;strokeColor=none;fillColor=none;align=left;verticalAlign=top;spacingLeft=4;spacingRight=4;overflow=hidden;rotatable=0;points=[[0,0.5],[1,0.5]];portConstraint=eastwest;whiteSpace=wrap;html=1;" parent="XA_w1-w0YbgLu9Te0FCV-16" vertex="1">
          <mxGeometry y="26" width="260" height="24" as="geometry" />
        </mxCell>
        <mxCell id="XA_w1-w0YbgLu9Te0FCV-21" value="- Name : string" style="text;strokeColor=none;fillColor=none;align=left;verticalAlign=top;spacingLeft=4;spacingRight=4;overflow=hidden;rotatable=0;points=[[0,0.5],[1,0.5]];portConstraint=eastwest;whiteSpace=wrap;html=1;" parent="XA_w1-w0YbgLu9Te0FCV-16" vertex="1">
          <mxGeometry y="50" width="260" height="26" as="geometry" />
        </mxCell>
        <mxCell id="XA_w1-w0YbgLu9Te0FCV-17" value="- BorrowedBooks : list&amp;lt;Book&amp;gt;" style="text;strokeColor=none;fillColor=none;align=left;verticalAlign=top;spacingLeft=4;spacingRight=4;overflow=hidden;rotatable=0;points=[[0,0.5],[1,0.5]];portConstraint=eastwest;whiteSpace=wrap;html=1;" parent="XA_w1-w0YbgLu9Te0FCV-16" vertex="1">
          <mxGeometry y="76" width="260" height="24" as="geometry" />
        </mxCell>
        <mxCell id="XA_w1-w0YbgLu9Te0FCV-18" value="" style="line;strokeWidth=1;fillColor=none;align=left;verticalAlign=middle;spacingTop=-1;spacingLeft=3;spacingRight=3;rotatable=0;labelPosition=right;points=[];portConstraint=eastwest;strokeColor=inherit;" parent="XA_w1-w0YbgLu9Te0FCV-16" vertex="1">
          <mxGeometry y="100" width="260" height="8" as="geometry" />
        </mxCell>
        <mxCell id="XA_w1-w0YbgLu9Te0FCV-23" value="+ setUserId(string) : void" style="text;strokeColor=none;fillColor=none;align=left;verticalAlign=top;spacingLeft=4;spacingRight=4;overflow=hidden;rotatable=0;points=[[0,0.5],[1,0.5]];portConstraint=eastwest;whiteSpace=wrap;html=1;" parent="XA_w1-w0YbgLu9Te0FCV-16" vertex="1">
          <mxGeometry y="108" width="260" height="26" as="geometry" />
        </mxCell>
        <mxCell id="XA_w1-w0YbgLu9Te0FCV-24" value="+ getUserId(void) : string" style="text;strokeColor=none;fillColor=none;align=left;verticalAlign=top;spacingLeft=4;spacingRight=4;overflow=hidden;rotatable=0;points=[[0,0.5],[1,0.5]];portConstraint=eastwest;whiteSpace=wrap;html=1;" parent="XA_w1-w0YbgLu9Te0FCV-16" vertex="1">
          <mxGeometry y="134" width="260" height="26" as="geometry" />
        </mxCell>
        <mxCell id="XA_w1-w0YbgLu9Te0FCV-22" value="+ setName(string) : void" style="text;strokeColor=none;fillColor=none;align=left;verticalAlign=top;spacingLeft=4;spacingRight=4;overflow=hidden;rotatable=0;points=[[0,0.5],[1,0.5]];portConstraint=eastwest;whiteSpace=wrap;html=1;" parent="XA_w1-w0YbgLu9Te0FCV-16" vertex="1">
          <mxGeometry y="160" width="260" height="26" as="geometry" />
        </mxCell>
        <mxCell id="XA_w1-w0YbgLu9Te0FCV-25" value="+ getName(void) : string" style="text;strokeColor=none;fillColor=none;align=left;verticalAlign=top;spacingLeft=4;spacingRight=4;overflow=hidden;rotatable=0;points=[[0,0.5],[1,0.5]];portConstraint=eastwest;whiteSpace=wrap;html=1;" parent="XA_w1-w0YbgLu9Te0FCV-16" vertex="1">
          <mxGeometry y="186" width="260" height="26" as="geometry" />
        </mxCell>
        <mxCell id="XA_w1-w0YbgLu9Te0FCV-26" value="+ setBorrowedBooks(list&amp;lt;Book&amp;gt;) : void" style="text;strokeColor=none;fillColor=none;align=left;verticalAlign=top;spacingLeft=4;spacingRight=4;overflow=hidden;rotatable=0;points=[[0,0.5],[1,0.5]];portConstraint=eastwest;whiteSpace=wrap;html=1;" parent="XA_w1-w0YbgLu9Te0FCV-16" vertex="1">
          <mxGeometry y="212" width="260" height="26" as="geometry" />
        </mxCell>
        <mxCell id="XA_w1-w0YbgLu9Te0FCV-27" value="+ getBorrowedBooks(void) : list&amp;lt;Book&amp;gt;" style="text;strokeColor=none;fillColor=none;align=left;verticalAlign=top;spacingLeft=4;spacingRight=4;overflow=hidden;rotatable=0;points=[[0,0.5],[1,0.5]];portConstraint=eastwest;whiteSpace=wrap;html=1;" parent="XA_w1-w0YbgLu9Te0FCV-16" vertex="1">
          <mxGeometry y="238" width="260" height="26" as="geometry" />
        </mxCell>
        <mxCell id="XA_w1-w0YbgLu9Te0FCV-28" value="+ borrowBook(Book) : void" style="text;strokeColor=none;fillColor=none;align=left;verticalAlign=top;spacingLeft=4;spacingRight=4;overflow=hidden;rotatable=0;points=[[0,0.5],[1,0.5]];portConstraint=eastwest;whiteSpace=wrap;html=1;" parent="XA_w1-w0YbgLu9Te0FCV-16" vertex="1">
          <mxGeometry y="264" width="260" height="26" as="geometry" />
        </mxCell>
        <mxCell id="XA_w1-w0YbgLu9Te0FCV-29" value="+ returnBook(Book) : void" style="text;strokeColor=none;fillColor=none;align=left;verticalAlign=top;spacingLeft=4;spacingRight=4;overflow=hidden;rotatable=0;points=[[0,0.5],[1,0.5]];portConstraint=eastwest;whiteSpace=wrap;html=1;" parent="XA_w1-w0YbgLu9Te0FCV-16" vertex="1">
          <mxGeometry y="290" width="260" height="26" as="geometry" />
        </mxCell>
        <mxCell id="XA_w1-w0YbgLu9Te0FCV-30" value="+ borrowedBooks(void) : void" style="text;strokeColor=none;fillColor=none;align=left;verticalAlign=top;spacingLeft=4;spacingRight=4;overflow=hidden;rotatable=0;points=[[0,0.5],[1,0.5]];portConstraint=eastwest;whiteSpace=wrap;html=1;" parent="XA_w1-w0YbgLu9Te0FCV-16" vertex="1">
          <mxGeometry y="316" width="260" height="26" as="geometry" />
        </mxCell>
        <mxCell id="XA_w1-w0YbgLu9Te0FCV-32" value="Libarary" style="swimlane;fontStyle=1;align=center;verticalAlign=top;childLayout=stackLayout;horizontal=1;startSize=26;horizontalStack=0;resizeParent=1;resizeParentMax=0;resizeLast=0;collapsible=1;marginBottom=0;whiteSpace=wrap;html=1;" parent="1" vertex="1">
          <mxGeometry x="184" y="420" width="230" height="216" as="geometry" />
        </mxCell>
        <mxCell id="XA_w1-w0YbgLu9Te0FCV-41" value="- Users : list&amp;lt;User&amp;gt;" style="text;strokeColor=none;fillColor=none;align=left;verticalAlign=top;spacingLeft=4;spacingRight=4;overflow=hidden;rotatable=0;points=[[0,0.5],[1,0.5]];portConstraint=eastwest;whiteSpace=wrap;html=1;" parent="XA_w1-w0YbgLu9Te0FCV-32" vertex="1">
          <mxGeometry y="26" width="230" height="26" as="geometry" />
        </mxCell>
        <mxCell id="XA_w1-w0YbgLu9Te0FCV-40" value="- Books : list&amp;lt;Book&amp;gt;" style="text;strokeColor=none;fillColor=none;align=left;verticalAlign=top;spacingLeft=4;spacingRight=4;overflow=hidden;rotatable=0;points=[[0,0.5],[1,0.5]];portConstraint=eastwest;whiteSpace=wrap;html=1;" parent="XA_w1-w0YbgLu9Te0FCV-32" vertex="1">
          <mxGeometry y="52" width="230" height="26" as="geometry" />
        </mxCell>
        <mxCell id="XA_w1-w0YbgLu9Te0FCV-34" value="" style="line;strokeWidth=1;fillColor=none;align=left;verticalAlign=middle;spacingTop=-1;spacingLeft=3;spacingRight=3;rotatable=0;labelPosition=right;points=[];portConstraint=eastwest;strokeColor=inherit;" parent="XA_w1-w0YbgLu9Te0FCV-32" vertex="1">
          <mxGeometry y="78" width="230" height="8" as="geometry" />
        </mxCell>
        <mxCell id="XA_w1-w0YbgLu9Te0FCV-45" value="+ addBook(Book) : void" style="text;strokeColor=none;fillColor=none;align=left;verticalAlign=top;spacingLeft=4;spacingRight=4;overflow=hidden;rotatable=0;points=[[0,0.5],[1,0.5]];portConstraint=eastwest;whiteSpace=wrap;html=1;" parent="XA_w1-w0YbgLu9Te0FCV-32" vertex="1">
          <mxGeometry y="86" width="230" height="26" as="geometry" />
        </mxCell>
        <mxCell id="XA_w1-w0YbgLu9Te0FCV-46" value="+ removeBook(Book) : void" style="text;strokeColor=none;fillColor=none;align=left;verticalAlign=top;spacingLeft=4;spacingRight=4;overflow=hidden;rotatable=0;points=[[0,0.5],[1,0.5]];portConstraint=eastwest;whiteSpace=wrap;html=1;" parent="XA_w1-w0YbgLu9Te0FCV-32" vertex="1">
          <mxGeometry y="112" width="230" height="26" as="geometry" />
        </mxCell>
        <mxCell id="XA_w1-w0YbgLu9Te0FCV-48" value="+ avilableBooks(void) : void" style="text;strokeColor=none;fillColor=none;align=left;verticalAlign=top;spacingLeft=4;spacingRight=4;overflow=hidden;rotatable=0;points=[[0,0.5],[1,0.5]];portConstraint=eastwest;whiteSpace=wrap;html=1;" parent="XA_w1-w0YbgLu9Te0FCV-32" vertex="1">
          <mxGeometry y="138" width="230" height="26" as="geometry" />
        </mxCell>
        <mxCell id="XA_w1-w0YbgLu9Te0FCV-50" value="+ serch(string) : void" style="text;strokeColor=none;fillColor=none;align=left;verticalAlign=top;spacingLeft=4;spacingRight=4;overflow=hidden;rotatable=0;points=[[0,0.5],[1,0.5]];portConstraint=eastwest;whiteSpace=wrap;html=1;" parent="XA_w1-w0YbgLu9Te0FCV-32" vertex="1">
          <mxGeometry y="164" width="230" height="26" as="geometry" />
        </mxCell>
        <mxCell id="XA_w1-w0YbgLu9Te0FCV-49" value="+ addUser(User) : void" style="text;strokeColor=none;fillColor=none;align=left;verticalAlign=top;spacingLeft=4;spacingRight=4;overflow=hidden;rotatable=0;points=[[0,0.5],[1,0.5]];portConstraint=eastwest;whiteSpace=wrap;html=1;" parent="XA_w1-w0YbgLu9Te0FCV-32" vertex="1">
          <mxGeometry y="190" width="230" height="26" as="geometry" />
        </mxCell>
      </root>
    </mxGraphModel>
  </diagram>
</mxfile>
